<svg xmlns="http://www.w3.org/2000/svg" viewBox="0 0 284.45 1440.11"><defs><style>.cls-1{fill:#4070f4;}</style></defs><g id="Ebene_2" data-name="Ebene 2"><g id="Ebene_1-2" data-name="Ebene 1"><path class="cls-1" d="M188.45,1440.11l-32-26.66c-32-26.57-96.1-80.19-106.86-133.18-10.36-53.29,31.58-107,31.82-160-.36-53.3-42.42-107-53.49-159.94-11.06-53.28,10.88-107,10.52-160,.24-53.3-21.82-107-32.18-160-10.76-53.29-10.83-107,26.41-160,37.64-53.35,111.58-107.13,106.52-160.12-5.06-53.3-91.12-106.9-90.88-159.9C47.91,107,133.85,53.17,176.12,27.12l42.67-27,64-.07,0,26.7L283,160l.19,160,.18,160,.19,160,.18,160,.18,160,.19,160,.18,160,.15,133,0,27Z"/></g></g></svg>